<?xml version="1.0" encoding="UTF-8" standalone="no"?>
<!-- Created with Inkscape (http://www.inkscape.org/) -->

<svg
   xmlns:dc="http://purl.org/dc/elements/1.1/"
   xmlns:cc="http://creativecommons.org/ns#"
   xmlns:rdf="http://www.w3.org/1999/02/22-rdf-syntax-ns#"
   xmlns:svg="http://www.w3.org/2000/svg"
   xmlns="http://www.w3.org/2000/svg"
   xmlns:sodipodi="http://sodipodi.sourceforge.net/DTD/sodipodi-0.dtd"
   xmlns:inkscape="http://www.inkscape.org/namespaces/inkscape"
   width="100"
   height="100"
   viewBox="0 0 100 100"
   id="svg4830"
   version="1.1"
   inkscape:version="0.91 r13725"
   inkscape:export-filename="/Users/ThomasLeese/Documents/Projects/Planets/android/assets/graphics/sprites/rocket.png"
   inkscape:export-xdpi="90"
   inkscape:export-ydpi="90"
   sodipodi:docname="rocket.svg">
  <defs
     id="defs4832">
    <filter
       inkscape:collect="always"
       style="color-interpolation-filters:sRGB"
       id="filter4180"
       x="-0.16909091"
       width="1.3381819"
       y="-0.093000002"
       height="1.186">
      <feGaussianBlur
         inkscape:collect="always"
         stdDeviation="15.5"
         id="feGaussianBlur4182" />
    </filter>
  </defs>
  <sodipodi:namedview
     id="base"
     pagecolor="#ffffff"
     bordercolor="#666666"
     borderopacity="1.0"
     inkscape:pageopacity="0.0"
     inkscape:pageshadow="2"
     inkscape:zoom="2.8284271"
     inkscape:cx="19.934185"
     inkscape:cy="41.347506"
     inkscape:document-units="px"
     inkscape:current-layer="layer1"
     showgrid="false"
     units="px"
     inkscape:window-width="1280"
     inkscape:window-height="751"
     inkscape:window-x="0"
     inkscape:window-y="1"
     inkscape:window-maximized="1" />
  <metadata
     id="metadata4835">
    <rdf:RDF>
      <cc:Work
         rdf:about="">
        <dc:format>image/svg+xml</dc:format>
        <dc:type
           rdf:resource="http://purl.org/dc/dcmitype/StillImage" />
        <dc:title></dc:title>
      </cc:Work>
    </rdf:RDF>
  </metadata>
  <g
     inkscape:label="Layer 1"
     inkscape:groupmode="layer"
     id="layer1"
     transform="translate(0,-952.36213)">
    <path
       id="path4142"
       d="m 186,652.36213 c -61.61579,33.61459 -69.15812,86.02698 -71.17578,117.07422 -0.57808,16.01671 -0.0271,59.07562 3.20312,105.34766 L 76,923.36408 l 31.27539,128.99802 8.48047,-0.092 -3.70508,-89.79879 15,-6.28711 c 3.55483,21.12104 8.03053,39.42358 13.6543,51.7324 l 45.29492,0 45.29492,0 c 5.62377,-12.3088 10.09947,-30.61136 13.6543,-51.7324 l 15,6.28711 -3.70508,89.79879 8.48047,0.092 L 296,923.36408 253.97266,874.78401 c 3.23022,-46.27205 3.7812,-89.33095 3.20312,-105.34766 C 255.15812,738.38911 247.61579,685.97672 186,652.36213 Z m 0,52 a 30,32 0 0 1 30,32 30,32 0 0 1 -30,32 30,32 0 0 1 -30,-32 30,32 0 0 1 30,-32 z"
       style="fill:#000000;fill-opacity:1;stroke:none;stroke-width:8;stroke-linecap:butt;stroke-linejoin:miter;stroke-miterlimit:4;stroke-dasharray:none;stroke-opacity:1;filter:url(#filter4180)"
       inkscape:connector-curvature="0"
       transform="matrix(0.2105973,0,0,0.2107926,7.8288249,822.69065)" />
    <path
       style="fill:#ffffff;fill-opacity:1;stroke:none;stroke-width:8;stroke-linecap:butt;stroke-linejoin:miter;stroke-miterlimit:4;stroke-dasharray:none;stroke-opacity:1"
       d="m 49.948284,960.20376 c -12.976118,7.0857 -14.564513,18.13385 -14.989426,24.67838 -0.121742,3.3762 -0.0057,12.4527 0.674568,22.20646 l -8.850844,10.2404 6.586513,27.1918 1.785964,-0.02 -0.78028,-18.929 3.15896,-1.3253 c 0.748637,4.4522 1.691207,8.3102 2.875558,10.9049 l 9.538987,0 9.538984,0 c 1.18436,-2.5947 2.126929,-6.4527 2.875569,-10.9049 l 3.158958,1.3253 -0.78028,18.929 1.785959,0.02 6.586516,-27.1918 -8.850845,-10.2404 c 0.680275,-9.75376 0.796315,-18.83026 0.674565,-22.20646 -0.42492,-6.54453 -2.013304,-17.59268 -14.989426,-24.67838 z m 0,10.9612 a 6.3179193,6.7453636 0 0 1 6.317916,6.74538 6.3179193,6.7453636 0 0 1 -6.317916,6.74536 6.3179193,6.7453636 0 0 1 -6.317918,-6.74536 6.3179193,6.7453636 0 0 1 6.317918,-6.74538 z"
       id="rect5378"
       inkscape:connector-curvature="0" />
  </g>
</svg>
